<?xml version="1.0" encoding="utf-8"?>
<!-- Generator: Adobe Illustrator 23.0.4, SVG Export Plug-In . SVG Version: 6.00 Build 0)  -->
<svg version="1.1" id="Layer_1" xmlns="http://www.w3.org/2000/svg" xmlns:xlink="http://www.w3.org/1999/xlink" x="0px" y="0px"
	 viewBox="0 0 20 20" style="enable-background:new 0 0 20 20;" xml:space="preserve">
<style type="text/css">
	.st0{fill:#FFFFFF;}
	.st1{fill:none;}
</style>
<path class="st0" d="M17.7,8c-0.5,0-1,0.2-1.4,0.6c-1.7-1.2-3.7-1.8-5.8-1.8l1-4.7l3.2,0.7c0.1,0.8,0.8,1.4,1.7,1.3
	c0.8-0.1,1.4-0.8,1.3-1.7C17.6,1.6,16.9,1,16,1.1c-0.5,0-0.9,0.3-1.1,0.7l-3.7-0.7c-0.3-0.1-0.5,0.1-0.6,0.4c0,0,0,0,0,0L9.5,6.7
	c-2.1,0-4.1,0.7-5.9,1.8C2.8,7.7,1.4,7.8,0.6,8.6c-0.8,0.9-0.8,2.3,0.1,3.1c0.2,0.2,0.4,0.3,0.6,0.4c0,0.2,0,0.4,0,0.7
	c0,3.4,3.9,6.1,8.8,6.1s8.8-2.7,8.8-6.1c0-0.2,0-0.4,0-0.7c0.8-0.4,1.2-1.2,1.2-2C20,8.9,18.9,8,17.7,8z M5,11.7
	c0-0.8,0.7-1.5,1.5-1.5S8,10.9,8,11.7s-0.7,1.5-1.5,1.5S5,12.6,5,11.7z M13.7,15.8L13.7,15.8c-1.1,0.8-2.4,1.2-3.7,1.1
	c-1.3,0.1-2.6-0.4-3.7-1.2c-0.1-0.2-0.1-0.4,0.1-0.6c0.1-0.1,0.4-0.1,0.5,0c0.9,0.7,2,1,3.1,0.9c1.1,0.1,2.2-0.3,3.1-0.9
	c0.2-0.2,0.4-0.2,0.6,0C13.9,15.4,13.9,15.7,13.7,15.8z M13.5,13.3c-0.8,0-1.5-0.7-1.5-1.5s0.7-1.5,1.5-1.5c0.8,0,1.5,0.7,1.5,1.5
	S14.3,13.3,13.5,13.3z"/>
<rect class="st1" width="20" height="20"/>
</svg>
